<svg width="52" height="52" viewBox="0 0 52 52" fill="none" xmlns="http://www.w3.org/2000/svg">
<circle cx="26" cy="26" r="26" fill="#D9D9D9"/>
<path d="M20.9885 37.2314C21.2143 37.4747 21.201 37.8598 20.9583 38.0861L19.6473 39.3121C19.4047 39.5384 19.0214 39.5251 18.7956 39.2813L11.1607 31.053C10.9349 30.8097 10.9488 30.4252 11.1914 30.1983L12.5043 28.9742C12.7469 28.7472 13.1302 28.7611 13.356 29.0049L20.9885 37.2314ZM30.7307 21.749C30.9564 21.9923 30.9425 22.3774 30.6999 22.6037L22.4486 30.3117C22.206 30.5381 21.8227 30.5248 21.5969 30.281L19.6274 28.1557C19.4016 27.9124 19.4155 27.5273 19.6582 27.301L27.9076 19.593C28.1497 19.3666 28.5329 19.3799 28.7587 19.6237L30.7307 21.749ZM23.7959 34.6076C24.0216 34.8508 24.0077 35.2353 23.7651 35.4623L22.4522 36.6876C22.2096 36.9145 21.8263 36.9007 21.6006 36.6568L13.9698 28.4285C13.7441 28.1852 13.7574 27.8001 14 27.5738L15.3104 26.3491C15.5531 26.1227 15.9364 26.136 16.1621 26.3799L23.7959 34.6076ZM36.5096 22.0442C36.7353 22.2874 36.7214 22.6725 36.4782 22.8989L35.1659 24.1242C34.9233 24.3506 34.54 24.3373 34.3136 24.094L26.6817 15.8675C26.4553 15.6243 26.4692 15.2398 26.7119 15.0128L28.0277 13.7845C28.2698 13.5581 28.6531 13.5714 28.8788 13.8153L36.5096 22.0442ZM39.3127 19.4246C39.5384 19.6678 39.5245 20.0529 39.2819 20.2799L37.9721 21.5046C37.73 21.7315 37.3468 21.7176 37.121 21.4744L29.4903 13.2443C29.2645 13.001 29.2778 12.6159 29.5204 12.389L30.8315 11.1618C31.0735 10.9349 31.4562 10.9482 31.6819 11.192L39.3127 19.4246Z" fill="black"/>
</svg>
