<svg width="51" height="50" viewBox="0 0 51 50" fill="none" xmlns="http://www.w3.org/2000/svg">
<path d="M24.1141 6.56934C31.9044 6.56934 38.2014 10.6815 44.9804 22.6222C50.6239 32.564 49.5458 43.374 43.5492 46.6895C37.5527 50.005 35.2867 49.3992 32.6247 49.2513C30.1488 49.1177 24.4766 38.3601 24.4766 38.3601C24.4766 38.3601 19.2958 49.07 15.6989 49.0175C14.344 48.9984 7.10237 49.1082 3.34319 44.3615C-0.415988 39.6148 -0.239479 31.5574 3.34319 24.392C6.92586 17.2267 14.4394 6.56934 24.1141 6.56934Z" fill="#F2A159"/>
<path d="M50.4426 8.27239C50.6477 13.6535 46.5499 16.8689 42.1133 16.8689C37.6767 16.8689 34.8621 13.0095 34.8621 8.63018C34.8621 4.25083 38.7548 0.839905 43.1914 0.839905C47.628 0.839905 50.2756 3.89781 50.4426 8.27239Z" fill="#F2A159"/>
<path d="M5.75702 15.3471C0.638242 13.6774 -0.893098 9.81805 0.476044 5.49595C1.84519 1.17386 6.51076 -0.929948 10.685 0.391489C14.8592 1.71293 16.6195 6.36419 15.2504 10.6911C13.8812 15.0179 9.60684 16.597 5.75702 15.3471Z" fill="#F2A159"/>
<path d="M12.0256 8.00049C12.0256 10.276 10.2366 11.8503 8.0851 11.8503C5.9336 11.8503 4.32593 10.0947 4.32593 7.81921C4.32593 5.54366 5.9336 3.70224 8.0851 3.70224C10.8616 3.70224 12.0256 5.72972 12.0256 8.00049Z" fill="#FFA7AA"/>
<path d="M42.2707 12.4896C40.0046 12.294 38.5878 10.3715 38.7786 8.22949C38.9694 6.08752 41.1925 4.48939 43.4585 4.68976C45.7245 4.89012 47.0841 6.79833 46.8981 8.9403C46.6548 11.7024 44.5367 12.6899 42.2707 12.4896Z" fill="#FFA7AA"/>
<path d="M36.8274 25.7755C37.0469 27.4165 36.6032 29.1339 34.9812 29.1673C33.2829 29.2007 32.6962 27.7362 32.5292 26.0903C32.3622 24.4445 33.0492 23.4952 34.2752 23.3139C35.8018 23.0897 36.6509 24.435 36.8274 25.7755Z" fill="#2E3030"/>
<path d="M17.5212 25.9425C17.5784 27.5978 16.9058 29.4011 15.1598 29.2675C13.4662 29.1387 12.9653 27.1208 13.1895 25.37C13.3995 23.7289 14.1007 23.1422 15.3363 23.0849C16.8772 23.0181 17.4783 24.5924 17.5212 25.9425Z" fill="#2E2D31"/>
<path d="M24.7628 46.1934C24.7628 46.1934 29.0611 49.0127 32.6867 49.2847C36.3123 49.5566 40.5437 48.1445 40.8109 42.8397C41.1162 36.7954 36.5794 33.5037 35.4393 32.6307C34.7618 32.1108 31.2746 29.6778 31.2746 29.6778C31.2746 29.6778 30.3348 22.2882 30.0009 19.8743C29.6669 17.4557 29.4045 13.6965 24.7628 13.6297C20.331 13.5629 19.7824 18.1283 19.7251 19.6072C19.6583 21.3532 18.9857 29.7493 18.9857 29.7493C18.9857 29.7493 16.4526 31.4286 14.6875 32.7739C13.1418 33.9474 9.15364 36.9385 9.31584 42.043C9.44941 46.3412 11.7345 49.1606 16.567 49.0271C22.3537 48.8553 24.7628 46.1934 24.7628 46.1934Z" fill="#FFD2B1"/>
<path d="M21.8957 40.2636C21.8957 40.2636 21.5427 44.662 23.0597 45.368C24.3144 45.95 24.987 44.1134 24.987 44.1134C24.987 44.1134 25.4068 45.1772 26.4182 45.368C28.3455 45.7258 27.897 39.8581 27.897 39.8581L25.03 38.3363L21.8957 40.2636Z" fill="#FFFEFD"/>
<path d="M23.0836 37.6875C23.0836 37.0578 22.2105 36.7477 21.3805 36.1896C20.8653 35.8413 20.2165 35.4072 20.3977 34.6916C20.579 33.976 21.8957 33.9092 24.5386 33.8615C27.1814 33.8186 29.0372 34.0619 28.9465 34.7775C28.8559 35.4931 28.0497 35.9844 27.4486 36.4329C27.1671 36.6428 26.1749 37.1961 26.2178 37.5969C26.2607 37.9976 27.4247 38.9278 28.3645 38.9422C29.9293 38.966 30.6496 38.0453 31.0074 37.6446C31.3652 37.2438 31.8136 36.7954 32.3956 37.0626C32.9776 37.3297 32.4624 38.8992 31.2984 39.9726C30.1344 41.046 28.0544 41.3179 26.7092 40.7359C25.3639 40.1539 24.7628 39.3238 24.7628 39.3238C24.7628 39.3238 23.3078 41.4037 20.9368 41.046C19.1383 40.774 17.9839 39.6148 17.4448 38.675C16.9057 37.7352 17.0775 37.1771 17.5354 37.1103C18.1174 37.0196 18.4752 37.6923 19.1479 38.0071C19.8205 38.322 20.3357 38.6989 21.4091 38.6559C22.4777 38.6034 23.0836 38.1359 23.0836 37.6875Z" fill="#2F302D"/>
<path d="M6.65384 43.6363C6.4344 43.6363 6.21973 43.5314 6.09092 43.331C5.89056 43.0209 5.97643 42.6059 6.28651 42.4055C6.39147 42.3387 8.87691 40.7263 10.2699 39.963C11.6581 39.1997 14.0816 37.9022 14.0816 37.9022C14.0816 37.9022 14.6063 37.53 14.9927 38.0977C15.3791 38.6702 14.716 39.0805 14.716 39.0805C14.716 39.0805 12.3022 40.3781 10.9139 41.1366C9.56387 41.876 7.04026 43.5123 7.01641 43.5266C6.90191 43.6029 6.77788 43.6363 6.65384 43.6363Z" fill="#5F646D"/>
<path d="M9.42077 46.9805C9.26334 46.9805 9.10591 46.928 8.98188 46.8135C8.70519 46.5702 8.67656 46.1504 8.91986 45.8689C8.97234 45.8117 10.2174 44.3901 11.6152 43.1259C13.0034 41.8712 14.3058 40.7072 14.3058 40.7072C14.5825 40.4592 15.0023 40.483 15.2504 40.7597C15.4984 41.0364 15.4746 41.4562 15.1979 41.7043C15.1979 41.7043 13.9003 42.8683 12.5121 44.1229C11.1716 45.3346 9.93598 46.7372 9.92644 46.7515C9.79287 46.9041 9.60682 46.9805 9.42077 46.9805Z" fill="#5F646D"/>
<path d="M43.4491 44.0227C43.2917 44.0227 43.1295 43.9655 43.0054 43.851C43.0007 43.8462 42.1372 43.0925 39.4752 41.461C36.7703 39.8008 35.1674 39.0423 35.1531 39.0328C34.8192 38.8753 34.6761 38.4746 34.8335 38.1454C34.9909 37.8115 35.3869 37.6684 35.7208 37.8258C35.7876 37.8592 37.3953 38.6225 40.1717 40.3208C42.9673 42.0334 43.8593 42.8206 43.8927 42.854C44.1694 43.102 44.1885 43.5218 43.9452 43.7985C43.8116 43.9512 43.6304 44.0227 43.4491 44.0227Z" fill="#5F646D"/>
<path d="M40.4054 46.6656C40.2289 46.6656 40.0524 46.5941 39.9188 46.4557C39.9045 46.4414 38.4399 44.891 36.9563 43.5362C35.5013 42.2099 33.8888 41.2034 33.8745 41.1938C33.5597 40.9982 33.4643 40.588 33.6598 40.2731C33.8554 39.9583 34.2657 39.8628 34.5806 40.0584C34.6521 40.1014 36.3075 41.1366 37.8579 42.5487C39.3797 43.9369 40.8347 45.473 40.892 45.5398C41.1448 45.8069 41.1305 46.2315 40.8633 46.4843C40.7345 46.6084 40.5676 46.6656 40.4054 46.6656Z" fill="#5F646D"/>
</svg>
