<svg width="76" height="68" viewBox="0 0 76 68" fill="none" xmlns="http://www.w3.org/2000/svg">
<path fill-rule="evenodd" clip-rule="evenodd" d="M33.2376 1.73658C34.5443 0.615998 36.2088 0 37.9301 0C39.6514 0 41.3159 0.615998 42.6225 1.73658L65.4576 21.3064L74.4208 28.4784C74.7905 28.7742 75.0982 29.14 75.3265 29.5547C75.5548 29.9694 75.6992 30.4251 75.7514 30.8956C75.8036 31.3662 75.7626 31.8424 75.6308 32.2971C75.499 32.7518 75.2789 33.1761 74.9831 33.5457C74.6872 33.9153 74.3215 34.2231 73.9068 34.4514C73.492 34.6797 73.0364 34.8241 72.5659 34.8763C72.0953 34.9285 71.6191 34.8875 71.1644 34.7557C70.7097 34.6238 70.2854 34.4037 69.9158 34.1079L66.7623 31.5851V60.1254C66.7623 62.0371 66.0029 63.8705 64.6511 65.2222C63.2993 66.574 61.4659 67.3334 59.5542 67.3334H45.1381V49.3133C45.1381 47.4016 44.3787 45.5682 43.0269 44.2164C41.6752 42.8647 39.8418 42.1053 37.9301 42.1053C36.0184 42.1053 34.185 42.8647 32.8332 44.2164C31.4814 45.5682 30.722 47.4016 30.722 49.3133V67.3334H16.3059C14.3942 67.3334 12.5608 66.574 11.2091 65.2222C9.8573 63.8705 9.09788 62.0371 9.09788 60.1254V31.5815L5.94436 34.1043C5.57723 34.4178 5.15087 34.6543 4.69057 34.7999C4.23027 34.9454 3.74542 34.997 3.26481 34.9516C2.78419 34.9061 2.3176 34.7646 1.89274 34.5354C1.46787 34.3062 1.09339 33.9939 0.791514 33.6172C0.489642 33.2404 0.266535 32.8069 0.135436 32.3423C0.00433665 31.8777 -0.032082 31.3914 0.0283411 30.9125C0.0887642 30.4335 0.244797 29.9716 0.487179 29.5541C0.729561 29.1366 1.05335 28.772 1.43933 28.482L10.4025 21.31L33.2376 1.73658V1.73658Z" fill="white"/>
</svg>
