<svg width="11" height="15" viewBox="0 0 11 15" fill="none" xmlns="http://www.w3.org/2000/svg">
<path fill-rule="evenodd" clip-rule="evenodd" d="M5.27356 14.071C5.27371 14.0711 5.27383 14.0712 5.5 13.75L5.27356 14.071ZM5.72644 14.071L5.72786 14.07L5.73143 14.0675L5.74392 14.0586C5.75465 14.0509 5.77009 14.0397 5.78989 14.0252C5.82949 13.996 5.88665 13.9534 5.9589 13.8979C6.10331 13.7868 6.30815 13.6241 6.55329 13.4145C7.04303 12.9957 7.69639 12.3879 8.35077 11.6309C9.6501 10.1278 11 7.98266 11 5.53021C11 4.06426 10.4211 2.65788 9.38991 1.62058C8.35862 0.583212 6.95942 0 5.5 0C4.04058 0 2.64138 0.583212 1.61009 1.62058C0.578914 2.65788 0 4.06426 0 5.53021C0 7.98266 1.3499 10.1278 2.64923 11.6309C3.30361 12.3879 3.95697 12.9957 4.44671 13.4145C4.69185 13.6241 4.89669 13.7868 5.0411 13.8979C5.11335 13.9534 5.17051 13.996 5.21011 14.0252C5.22991 14.0397 5.24535 14.0509 5.25608 14.0586L5.26857 14.0675L5.27214 14.07L5.27356 14.071C5.40921 14.1665 5.59079 14.1665 5.72644 14.071ZM5.5 13.75L5.72644 14.071C5.72629 14.0711 5.72617 14.0712 5.5 13.75ZM7.46429 5.5C7.46429 6.58484 6.58484 7.46429 5.5 7.46429C4.41516 7.46429 3.53571 6.58484 3.53571 5.5C3.53571 4.41516 4.41516 3.53571 5.5 3.53571C6.58484 3.53571 7.46429 4.41516 7.46429 5.5Z" fill="#333333"/>
</svg>
