<svg
															width="613"
															height="1090"
															viewBox="0 0 613 1090"
															fill="none"
															class="scale-[10%] "
															xmlns="http://www.w3.org/2000/svg"
														>
															<path
																d="M445.092 497.068L215.309 429.835C188.713 422.176 170.203 397.283 170.203 369.623C170.203 334.943 198.288 306.859 232.968 306.859H374.029C399.986 306.859 425.518 314.731 446.794 329.199C459.773 337.922 477.219 335.794 488.283 324.943L562.324 252.604C577.43 237.924 575.302 213.456 558.494 200.477C506.367 159.627 441.262 136.862 374.455 136.649V34.5229C374.455 15.7998 359.136 0.480957 340.413 0.480957H272.329C253.606 0.480957 238.287 15.7998 238.287 34.5229V136.649H232.968C97.4384 136.649 -11.4959 253.03 1.0571 391.112C9.99311 489.196 84.8854 568.982 179.352 596.641L397.433 660.47C424.028 668.342 442.539 693.022 442.539 720.681C442.539 755.361 414.454 783.446 379.774 783.446H238.713C212.756 783.446 187.224 775.574 165.948 761.106C152.969 752.383 135.523 754.51 124.459 765.361L50.4179 837.7C35.3118 852.381 37.4394 876.849 54.2477 889.827C106.374 930.678 171.48 953.443 238.287 953.656V1055.78C238.287 1074.5 253.606 1089.82 272.329 1089.82H340.413C359.136 1089.82 374.455 1074.5 374.455 1055.78V953.23C473.602 951.315 566.579 892.38 599.345 798.552C645.088 667.491 568.281 533.025 445.092 497.068V497.068Z"
																fill="black"
															/>
														</svg>