<svg width="613" height="446" viewBox="0 0 613 446" fill="none" xmlns="http://www.w3.org/2000/svg">
<path d="M0 319.087C14.0491 336.872 29.6151 353.404 46.5228 368.497C46.4708 367.015 46.2627 365.61 46.2627 364.128C46.3644 337.735 54.4494 311.991 69.4548 290.279C84.4603 268.566 105.684 251.902 130.337 242.477C134.871 240.762 138.835 237.813 141.782 233.964C144.729 230.114 146.542 225.518 147.015 220.694C147.488 215.869 146.604 211.008 144.461 206.659C142.318 202.311 139.002 198.648 134.887 196.084C123.644 189.138 114.373 179.421 107.962 167.865C101.551 156.309 98.2146 143.299 98.2726 130.084C98.2158 114.933 102.589 100.097 110.855 87.3999C119.121 74.7029 130.918 64.6993 144.796 58.62C158.673 52.5407 174.025 50.651 188.962 53.1833C203.9 55.7157 217.771 62.5596 228.869 72.873C245.126 63.5419 262.942 57.2418 281.451 54.2795C271.306 40.1065 258.413 28.1207 243.538 19.036C228.663 9.95136 212.112 3.95383 194.87 1.40078C177.629 -1.15226 160.05 -0.208595 143.181 4.17557C126.312 8.55973 110.498 16.2947 96.681 26.9195C82.8643 37.5444 71.3277 50.8417 62.7586 66.0193C54.1894 81.1968 48.7631 97.944 46.8029 115.263C44.8427 132.582 46.3887 150.118 51.3489 166.827C56.309 183.536 64.5818 199.075 75.6743 212.519C38.2481 237.574 11.3204 275.495 0 319.087V319.087ZM612.624 319.087C601.315 275.476 574.386 237.535 536.949 212.467C548.006 199.019 556.245 183.485 561.178 166.789C566.111 150.093 567.637 132.576 565.664 115.278C563.692 97.9811 558.262 81.2568 549.697 66.0999C541.132 50.943 529.607 37.6629 515.807 27.0491C502.007 16.4354 486.213 8.7046 469.366 4.31642C452.519 -0.0717532 434.961 -1.02775 417.737 1.50526C400.512 4.03826 383.973 10.0086 369.102 19.0612C354.232 28.1139 341.333 40.0641 331.173 54.2015C349.682 57.1626 367.498 63.4628 383.755 72.795C391.722 65.467 401.131 59.8816 411.38 56.3958C421.628 52.91 432.491 51.6003 443.274 52.5505C454.058 53.5007 464.524 56.6898 474.005 61.9142C483.487 67.1385 491.774 74.2831 498.337 82.8915C504.9 91.5 509.596 101.383 512.124 111.909C514.651 122.435 514.956 133.372 513.017 144.022C511.078 154.672 506.939 164.801 500.864 173.761C494.789 182.721 486.912 190.315 477.736 196.058C473.622 198.622 470.306 202.285 468.163 206.633C466.02 210.982 465.135 215.843 465.609 220.667C466.082 225.492 467.894 230.088 470.842 233.938C473.789 237.787 477.753 240.736 482.287 242.451C506.944 251.878 528.17 268.546 543.176 290.263C558.182 311.981 566.265 337.731 566.361 364.128C566.361 365.61 566.153 367.015 566.101 368.471C583.007 353.386 598.573 336.863 612.624 319.087V319.087Z" fill="black"/>
<path d="M487.149 423.523C484.324 396.836 475.675 371.094 461.813 348.115C447.951 325.136 429.213 305.48 406.924 290.534C426.044 267.328 436.448 238.167 436.335 208.098C436.324 187.265 431.306 166.74 421.705 148.252C412.105 129.763 398.202 113.852 381.168 101.858C364.134 89.8639 344.467 82.1388 323.824 79.3328C303.181 76.5268 282.166 78.7221 262.548 85.7339C242.931 92.7457 225.285 104.369 211.098 119.624C196.91 134.879 186.596 153.32 181.024 173.394C175.451 193.468 174.784 214.587 179.078 234.973C183.372 255.358 192.502 274.413 205.698 290.534C183.408 305.48 164.671 325.136 150.809 348.115C136.947 371.094 128.298 396.836 125.473 423.523C141.981 432.1 159.084 439.478 176.65 445.601C176.598 444.431 176.286 443.339 176.286 442.143C176.395 415.752 184.483 390.01 199.487 368.3C214.492 346.589 235.712 329.923 260.36 320.492C264.901 318.779 268.872 315.831 271.824 311.979C274.776 308.127 276.591 303.526 277.065 298.697C277.538 293.867 276.651 289.001 274.503 284.65C272.355 280.298 269.033 276.634 264.911 274.073C253.665 267.136 244.391 257.426 237.979 245.872C231.567 234.319 228.233 221.311 228.296 208.098C228.296 187.408 236.515 167.564 251.146 152.934C265.777 138.303 285.62 130.084 306.311 130.084C327.002 130.084 346.845 138.303 361.476 152.934C376.106 167.564 384.326 187.408 384.326 208.098C384.389 221.311 381.055 234.319 374.643 245.872C368.231 257.426 358.957 267.136 347.711 274.073C343.589 276.634 340.266 280.298 338.119 284.65C335.971 289.001 335.083 293.867 335.557 298.697C336.03 303.526 337.846 308.127 340.798 311.979C343.75 315.831 347.721 318.779 352.262 320.492C376.91 329.923 398.13 346.589 413.134 368.3C428.139 390.01 436.227 415.752 436.335 442.143C436.335 443.339 436.023 444.431 435.997 445.601C453.555 439.477 470.65 432.099 487.149 423.523V423.523Z" fill="black"/>
</svg>
