<svg width="13" height="13" viewBox="0 0 13 13" fill="none" xmlns="http://www.w3.org/2000/svg">
<path fill-rule="evenodd" clip-rule="evenodd" d="M6.31681 0C9.80548 0 12.6336 2.82813 12.6336 6.31681C12.6336 9.80548 9.80548 12.6336 6.31681 12.6336C2.82813 12.6336 0 9.80548 0 6.31681C0 2.82813 2.82813 0 6.31681 0ZM6.31681 1.26336C3.52587 1.26336 1.26336 3.52587 1.26336 6.31681C1.26336 9.10775 3.52587 11.3703 6.31681 11.3703C9.10775 11.3703 11.3703 9.10775 11.3703 6.31681C11.3703 3.52587 9.10775 1.26336 6.31681 1.26336ZM6.31681 2.52672C6.64075 2.52672 6.90775 2.77058 6.94424 3.08474L6.94849 3.1584V6.05516L8.02683 7.1335C8.27352 7.38019 8.27352 7.78015 8.02683 8.02683C7.79912 8.25454 7.44081 8.27206 7.19301 8.07938L7.1335 8.02683L5.87014 6.76347C5.77142 6.66475 5.70875 6.53672 5.6906 6.39984L5.68513 6.31681V3.1584C5.68513 2.80954 5.96794 2.52672 6.31681 2.52672Z" fill="black"/>
</svg>
